<svg id="Layer_1" xmlns="http://www.w3.org/2000/svg" version="1.1" viewBox="0 0 185.7 90.6"><defs><style>.st10,.st11,.st12,.st13,.st2,.st3,.st4,.st5,.st6,.st7,.st9{stroke-linecap:round;stroke-linejoin:round}.st11,.st12,.st13,.st2,.st3,.st4,.st5,.st6,.st7,.st9{fill:none}.st10,.st13,.st2,.st4,.st5,.st7,.st9{stroke-width:.4px}.st12,.st2{stroke:#a90000}.st3{stroke-width:.7px}.st11,.st13,.st3{stroke:#840000}.st15{letter-spacing:.7em}.st10,.st4{stroke:#009600}.st18{letter-spacing:.7em}.st5{stroke:#006464}.st6,.st7,.st9{stroke:#0000c2}.st11,.st12,.st6{font-family:ArialMT,Arial;font-size:4.8px;stroke-width:.4px}.st7{stroke-dasharray:0 1.7}.st20{isolation:isolate;opacity:0}.st21{letter-spacing:.6em}.st10{fill:#009600}.st24{letter-spacing:1.3em}</style></defs><path class="st13" d="M86.6 72.3v3.6h3.6l-3.6 3.6-3.6-3.6h3.6M86.6 72.3h0"/><path class="st5" d="m83.9 84.9-.3-.2M83.5 84.7H83M83 84.7l-.5.2M82.5 84.9l-.3.3M82.2 85.2l-.2.3M82 85.6l-.2.7M81.8 86.2v.5M81.8 86.8l.2.7M82 87.4l.2.3M82.2 87.8l.3.3M82.5 88.1l.5.2M83 88.3h.3M83.4 88.3l.5-.2M83.9 88.1l.2-.2M84 88v-1.2M84 86.8h-.7M85.6 88.3v-3.6M85.6 84.7l2.1 3.6M87.6 88.3v-3.6M89.4 88.3v-3.6M89.4 84.7h.9M90.2 84.7l.5.2M90.7 84.9l.3.3M91.1 85.2l.2.3M91.2 85.6l.2.7M91.4 86.2v.5M91.4 86.8l-.2.7M91.2 87.4l-.2.3M91.1 87.8l-.3.3M90.7 88.1l-.5.2M90.2 88.3h-.9"/><path style="fill:#ffffc2" d="M61.4 7.5h50.4v50.4H61.4z"/><path class="st3" d="M61.4 7.5h50.4v50.4H61.4zM88.4 37.7V27.6M89.1 37.7V27.6M89.9 27.6v10.1"/><path class="st3" d="m90.9 41.3-2.2-.7 1.8-1.1M90.9 24.4l-2.2.7 1.8 1.1"/><circle class="st3" cx="89.1" cy="32.7" r="5.4"/><path class="st3" d="M89.1 25.1c-4.3 0-7.7 3.5-7.7 7.7s3.5 7.7 7.7 7.7h0"/><path class="st13" d="M111.8 14.7h7.2"/><path class="st2" d="M113.7 12.4h1.7M113.4 13.5l1.2-3.6M114.6 9.9l1.2 3.6M117.1 9.9l-.3.7"/><path class="st13" d="M111.8 29.1h7.2"/><path class="st2" d="m114.8 26 .5.2M115.3 26.2l.2.2M115.5 26.3l.2.3M115.7 26.7v.5M115.7 27.2l-.2.3M115.5 27.5l-.2.2M115.3 27.7l-.3.2M115 27.9h-1.4M113.6 27.9v-3.6M113.6 24.3h1.2M114.8 24.3l.3.2M115.2 24.4l.2.2M115.3 24.6l.2.3M115.5 25v.3M115.5 25.3l-.2.3M115.3 25.6l-.2.2M115.2 25.8l-.3.2M114.8 26h-1.2M117.4 24.3l-.3.7"/><path class="st13" d="M111.8 21.9h7.2"/><path class="st2" d="m115.7 20.3-.2.2M115.5 20.5l-.5.2M115 20.7h-.3M114.6 20.7l-.5-.2M114.1 20.5l-.3-.3M113.8 20.2l-.2-.3M113.6 19.8l-.2-.7M113.4 19.1v-.5M113.4 18.6l.2-.7M113.6 17.9l.2-.3M113.8 17.6l.3-.3M114.1 17.2l.5-.2M114.6 17.1h.3M115 17.1l.5.2M115.5 17.2l.2.2M117.4 17.1l-.3.7"/><path class="st13" d="M61.4 25.5h-7.2"/><path class="st2" d="M57 23.2h1.7M56.6 24.3l1.2-3.6M57.8 20.7l1.2 3.6"/><path class="st13" d="M61.4 39.9h-7.2"/><path class="st2" d="m58.1 36.8.5.2M58.6 37l.2.2M58.8 37.1l.2.3M58.9 37.5v.5M58.9 38l-.2.3M58.8 38.3l-.2.2M58.6 38.5l-.3.2M58.2 38.7h-1.4M56.9 38.7v-3.6M56.9 35.1h1.2M58.1 35.1l.3.2M58.4 35.2l.2.2M58.6 35.4l.2.3M58.8 35.8v.3M58.8 36.1l-.2.3M58.6 36.4l-.2.2M58.4 36.6l-.3.2M58.1 36.8h-1.2"/><path class="st13" d="M61.4 32.7h-7.2"/><path class="st2" d="m58.9 31.1-.2.2M58.8 31.3l-.5.2M58.2 31.5h-.3M57.9 31.5l-.5-.2M57.4 31.3l-.3-.3M57 31l-.2-.3M56.9 30.6l-.2-.7M56.7 29.9v-.5M56.7 29.4l.2-.7M56.9 28.7l.2-.3M57 28.4l.3-.3M57.4 28l.5-.2M57.9 27.9h.3M58.2 27.9l.5.2M58.8 28l.2.2"/><path class="st13" d="M111.8 43.5h7.2"/><path class="st2" d="m112.7 42.1.5.2M113.2 42.3h.9M114 42.3l.3-.2M114.4 42.1l.2-.2M114.6 41.9l.2-.3M114.7 41.6v-.3M114.7 41.2l-.2-.3M114.6 40.9l-.2-.2M114.4 40.7l-.3-.2M114 40.6l-.7-.2M113.4 40.4l-.3-.2M113 40.2l-.2-.2M112.8 40l-.2-.3M112.7 39.7v-.3M112.7 39.4l.2-.3M112.8 39l.2-.2M113 38.8l.3-.2M113.4 38.7h.9M114.2 38.7l.5.2M118.2 42.3h-2.1M117.1 42.3v-3.6M117.1 38.7l-.3.5M116.8 39.2l-.3.3M116.4 39.5l-.3.2"/><path class="st13" d="M111.8 50.7h7.2"/><path class="st2" d="m112.7 49.3.5.2M113.2 49.5h.9M114 49.5l.3-.2M114.4 49.3l.2-.2M114.6 49.1l.2-.3M114.7 48.8v-.3M114.7 48.4l-.2-.3M114.6 48.1l-.2-.2M114.4 47.9l-.3-.2M114 47.8l-.7-.2M113.4 47.6l-.3-.2M113 47.4l-.2-.2M112.8 47.2l-.2-.3M112.7 46.9v-.3M112.7 46.6l.2-.3M112.8 46.2l.2-.2M113 46l.3-.2M113.4 45.9h.9M114.2 45.9l.5.2M116.1 46.2l.2-.2M116.3 46l.3-.2M116.6 45.9h.9M117.5 45.9l.3.2M117.8 46l.2.2M118 46.2l.2.3M118.2 46.6v.3M118.2 46.9l-.2.5M118 47.4l-2.1 2.1M115.9 49.5h2.2"/><path class="st13" d="M123.7 13h2.1M124.7 16.6V13M127.6 13h.7M128.3 13l.3.2M128.7 13.1l.3.3M129 13.5l.2.7M129.2 14.2v1.2M129.2 15.4l-.2.7M129 16l-.3.3M128.7 16.4l-.3.2M128.3 16.6h-.7M127.6 16.6l-.3-.2M127.3 16.4l-.3-.3M126.9 16l-.2-.7M126.8 15.4v-1.2M126.8 14.2l.2-.7M126.9 13.5l.3-.3M127.3 13.1l.3-.2M134.7 14.7l.5.2M135.2 14.8l.2.2M135.4 15l.2.3M135.5 15.4v.5M135.5 15.9l-.2.3M135.4 16.2l-.2.2M135.2 16.4l-.3.2M134.8 16.6h-1.4M133.5 16.6V13M133.5 13h1.2M134.7 13l.3.2M135 13.1l.2.2M135.2 13.3l.2.3M135.4 13.6v.3M135.4 14l-.2.3M135.2 14.3l-.2.2M135 14.5l-.3.2M134.7 14.7h-1.2M137.7 13h.7M138.4 13l.3.2M138.8 13.1l.3.3M139.1 13.5l.2.7M139.3 14.2v1.2M139.3 15.4l-.2.7M139.1 16l-.3.3M138.8 16.4l-.3.2M138.4 16.6h-.7M137.7 16.6l-.3-.2M137.4 16.4l-.3-.3M137.1 16l-.2-.7M136.9 15.4v-1.2M136.9 14.2l.2-.7M137.1 13.5l.3-.3M137.4 13.1l.3-.2M140.7 15.5h1.7M140.3 16.6l1.2-3.6M141.5 13l1.2 3.6M146 16.6l-1.2-1.7M143.9 16.6V13M143.9 13h1.4M145.3 13l.3.2M145.6 13.1l.2.2M145.8 13.3l.2.3M146 13.6v.5M146 14.2l-.2.3M145.8 14.5l-.2.2M145.6 14.7l-.3.2M145.3 14.8h-1.4M147.5 16.6V13M147.5 13h.9M148.4 13l.5.2M148.9 13.1l.3.3M149.2 13.5l.2.3M149.4 13.8l.2.7M149.6 14.5v.5M149.6 15l-.2.7M149.4 15.7l-.2.3M149.2 16l-.3.3M148.9 16.4l-.5.2M148.4 16.6h-.9M153.9 16.6V13M153.9 13h1.4M155.2 13l.3.2M155.6 13.1l.2.2M155.8 13.3l.2.3M155.9 13.6v.5M155.9 14.2l-.2.3M155.8 14.5l-.2.2M155.6 14.7l-.3.2M155.2 14.8h-1.4M157.5 16.6V13M159.2 16.6V13M159.2 13l2.1 3.6M161.2 16.6V13M119 14.7l3.2 3.6h42.5v-7.2h-42.5l-3.2 3.6ZM123.7 41.8h2.1M124.7 45.4v-3.6M127.6 41.8h.7M128.3 41.8l.3.2M128.7 41.9l.3.3M129 42.3l.2.7M129.2 43v1.2M129.2 44.2l-.2.7M129 44.8l-.3.3M128.7 45.2l-.3.2M128.3 45.4h-.7M127.6 45.4l-.3-.2M127.3 45.2l-.3-.3M126.9 44.8l-.2-.7M126.8 44.2V43M126.8 43l.2-.7M126.9 42.3l.3-.3M127.3 41.9l.3-.2M134.7 43.5l.5.2M135.2 43.6l.2.2M135.4 43.8l.2.3M135.5 44.2v.5M135.5 44.7l-.2.3M135.4 45l-.2.2M135.2 45.2l-.3.2M134.8 45.4h-1.4M133.5 45.4v-3.6M133.5 41.8h1.2M134.7 41.8l.3.2M135 41.9l.2.2M135.2 42.1l.2.3M135.4 42.4v.3M135.4 42.8l-.2.3M135.2 43.1l-.2.2M135 43.3l-.3.2M134.7 43.5h-1.2M137.7 41.8h.7M138.4 41.8l.3.2M138.8 41.9l.3.3M139.1 42.3l.2.7M139.3 43v1.2M139.3 44.2l-.2.7M139.1 44.8l-.3.3M138.8 45.2l-.3.2M138.4 45.4h-.7M137.7 45.4l-.3-.2M137.4 45.2l-.3-.3M137.1 44.8l-.2-.7M136.9 44.2V43M136.9 43l.2-.7M137.1 42.3l.3-.3M137.4 41.9l.3-.2M140.7 44.3h1.7M140.3 45.4l1.2-3.6M141.5 41.8l1.2 3.6M146 45.4l-1.2-1.7M143.9 45.4v-3.6M143.9 41.8h1.4M145.3 41.8l.3.2M145.6 41.9l.2.2M145.8 42.1l.2.3M146 42.4v.5M146 43l-.2.3M145.8 43.3l-.2.2M145.6 43.5l-.3.2M145.3 43.6h-1.4M147.5 45.4v-3.6M147.5 41.8h.9M148.4 41.8l.5.2M148.9 41.9l.3.3M149.2 42.3l.2.3M149.4 42.6l.2.7M149.6 43.3v.5M149.6 43.8l-.2.7M149.4 44.5l-.2.3M149.2 44.8l-.3.3M148.9 45.2l-.5.2M148.4 45.4h-.9M153.9 45.4v-3.6M153.9 41.8h1.4M155.2 41.8l.3.2M155.6 41.9l.2.2M155.8 42.1l.2.3M155.9 42.4v.5M155.9 43l-.2.3M155.8 43.3l-.2.2M155.6 43.5l-.3.2M155.2 43.6h-1.4M157.5 45.4v-3.6M159.2 45.4v-3.6M159.2 41.8l2.1 3.6M161.2 45.4v-3.6M119 43.5l3.2 3.6h42.5v-7.2h-42.5l-3.2 3.6ZM123.7 27.4h2.1M124.7 31v-3.6M127.6 27.4h.7M128.3 27.4l.3.2M128.7 27.5l.3.3M129 27.9l.2.7M129.2 28.6v1.2M129.2 29.8l-.2.7M129 30.4l-.3.3M128.7 30.8l-.3.2M128.3 31h-.7M127.6 31l-.3-.2M127.3 30.8l-.3-.3M126.9 30.4l-.2-.7M126.8 29.8v-1.2M126.8 28.6l.2-.7M126.9 27.9l.3-.3M127.3 27.5l.3-.2M134.7 29.1l.5.2M135.2 29.2l.2.2M135.4 29.4l.2.3M135.5 29.8v.5M135.5 30.3l-.2.3M135.4 30.6l-.2.2M135.2 30.8l-.3.2M134.8 31h-1.4M133.5 31v-3.6M133.5 27.4h1.2M134.7 27.4l.3.2M135 27.5l.2.2M135.2 27.7l.2.3M135.4 28v.3M135.4 28.4l-.2.3M135.2 28.7l-.2.2M135 28.9l-.3.2M134.7 29.1h-1.2M137.7 27.4h.7M138.4 27.4l.3.2M138.8 27.5l.3.3M139.1 27.9l.2.7M139.3 28.6v1.2M139.3 29.8l-.2.7M139.1 30.4l-.3.3M138.8 30.8l-.3.2M138.4 31h-.7M137.7 31l-.3-.2M137.4 30.8l-.3-.3M137.1 30.4l-.2-.7M136.9 29.8v-1.2M136.9 28.6l.2-.7M137.1 27.9l.3-.3M137.4 27.5l.3-.2M140.7 29.9h1.7M140.3 31l1.2-3.6M141.5 27.4l1.2 3.6M146 31l-1.2-1.7M143.9 31v-3.6M143.9 27.4h1.4M145.3 27.4l.3.2M145.6 27.5l.2.2M145.8 27.7l.2.3M146 28v.5M146 28.6l-.2.3M145.8 28.9l-.2.2M145.6 29.1l-.3.2M145.3 29.2h-1.4M147.5 31v-3.6M147.5 27.4h.9M148.4 27.4l.5.2M148.9 27.5l.3.3M149.2 27.9l.2.3M149.4 28.2l.2.7M149.6 28.9v.5M149.6 29.4l-.2.7M149.4 30.1l-.2.3M149.2 30.4l-.3.3M148.9 30.8l-.5.2M148.4 31h-.9M153.9 31v-3.6M153.9 27.4h1.4M155.2 27.4l.3.2M155.6 27.5l.2.2M155.8 27.7l.2.3M155.9 28v.5M155.9 28.6l-.2.3M155.8 28.9l-.2.2M155.6 29.1l-.3.2M155.2 29.2h-1.4M157.5 31v-3.6M159.2 31v-3.6M159.2 27.4l2.1 3.6M161.2 31v-3.6M119 29.1l3.2 3.6h42.5v-7.2h-42.5l-3.2 3.6ZM11.5 23.8h2.1M12.5 27.4v-3.6M15.4 23.8h.7M16.1 23.8l.3.2M16.5 23.9l.3.3M16.8 24.3l.2.7M17 25v1.2M17 26.2l-.2.7M16.8 26.8l-.3.3M16.5 27.2l-.3.2M16.1 27.4h-.7M15.4 27.4l-.3-.2M15.1 27.2l-.3-.3M14.7 26.8l-.2-.7M14.6 26.2V25M14.6 25l.2-.7M14.7 24.3l.3-.3M15.1 23.9l.3-.2M22.5 25.5l.5.2M23 25.6l.2.2M23.1 25.8l.2.3M23.3 26.2v.5M23.3 26.7l-.2.3M23.1 27l-.2.2M23 27.2l-.3.2M22.6 27.4h-1.4M21.3 27.4v-3.6M21.3 23.8h1.2M22.5 23.8l.3.2M22.8 23.9l.2.2M23 24.1l.2.3M23.1 24.4v.3M23.1 24.8l-.2.3M23 25.1l-.2.2M22.8 25.3l-.3.2M22.5 25.5h-1.2M25.5 23.8h.7M26.2 23.8l.3.2M26.6 23.9l.3.3M26.9 24.3l.2.7M27.1 25v1.2M27.1 26.2l-.2.7M26.9 26.8l-.3.3M26.6 27.2l-.3.2M26.2 27.4h-.7M25.5 27.4l-.3-.2M25.2 27.2l-.3-.3M24.9 26.8l-.2-.7M24.7 26.2V25M24.7 25l.2-.7M24.9 24.3l.3-.3M25.2 23.9l.3-.2M28.5 26.3h1.7M28.1 27.4l1.2-3.6M29.3 23.8l1.2 3.6M33.8 27.4l-1.2-1.7M31.7 27.4v-3.6M31.7 23.8h1.4M33.1 23.8l.3.2M33.4 23.9l.2.2M33.6 24.1l.2.3M33.8 24.4v.5M33.8 25l-.2.3M33.6 25.3l-.2.2M33.4 25.5l-.3.2M33.1 25.6h-1.4M35.3 27.4v-3.6M35.3 23.8h.9M36.2 23.8l.5.2M36.7 23.9l.3.3M37 24.3l.2.3M37.2 24.6l.2.7M37.4 25.3v.5M37.4 25.8l-.2.7M37.2 26.5l-.2.3M37 26.8l-.3.3M36.7 27.2l-.5.2M36.2 27.4h-.9M41.7 27.4v-3.6M41.7 23.8h1.4M43 23.8l.3.2M43.4 23.9l.2.2M43.5 24.1l.2.3M43.7 24.4v.5M43.7 25l-.2.3M43.5 25.3l-.2.2M43.4 25.5l-.3.2M43 25.6h-1.4M45.3 27.4v-3.6M47 27.4v-3.6M47 23.8l2.1 3.6M49 27.4v-3.6M54.2 25.5 51 21.9H8.5v7.2H51l3.2-3.6ZM11.5 38.2h2.1M12.5 41.8v-3.6M15.4 38.2h.7M16.1 38.2l.3.2M16.5 38.3l.3.3M16.8 38.7l.2.7M17 39.4v1.2M17 40.6l-.2.7M16.8 41.2l-.3.3M16.5 41.6l-.3.2M16.1 41.8h-.7M15.4 41.8l-.3-.2M15.1 41.6l-.3-.3M14.7 41.2l-.2-.7M14.6 40.6v-1.2M14.6 39.4l.2-.7M14.7 38.7l.3-.3M15.1 38.3l.3-.2M22.5 39.9l.5.2M23 40l.2.2M23.1 40.2l.2.3M23.3 40.6v.5M23.3 41.1l-.2.3M23.1 41.4l-.2.2M23 41.6l-.3.2M22.6 41.8h-1.4M21.3 41.8v-3.6M21.3 38.2h1.2M22.5 38.2l.3.2M22.8 38.3l.2.2M23 38.5l.2.3M23.1 38.8v.3M23.1 39.2l-.2.3M23 39.5l-.2.2M22.8 39.7l-.3.2M22.5 39.9h-1.2M25.5 38.2h.7M26.2 38.2l.3.2M26.6 38.3l.3.3M26.9 38.7l.2.7M27.1 39.4v1.2M27.1 40.6l-.2.7M26.9 41.2l-.3.3M26.6 41.6l-.3.2M26.2 41.8h-.7M25.5 41.8l-.3-.2M25.2 41.6l-.3-.3M24.9 41.2l-.2-.7M24.7 40.6v-1.2M24.7 39.4l.2-.7M24.9 38.7l.3-.3M25.2 38.3l.3-.2M28.5 40.7h1.7M28.1 41.8l1.2-3.6M29.3 38.2l1.2 3.6M33.8 41.8l-1.2-1.7M31.7 41.8v-3.6M31.7 38.2h1.4M33.1 38.2l.3.2M33.4 38.3l.2.2M33.6 38.5l.2.3M33.8 38.8v.5M33.8 39.4l-.2.3M33.6 39.7l-.2.2M33.4 39.9l-.3.2M33.1 40h-1.4M35.3 41.8v-3.6M35.3 38.2h.9M36.2 38.2l.5.2M36.7 38.3l.3.3M37 38.7l.2.3M37.2 39l.2.7M37.4 39.7v.5M37.4 40.2l-.2.7M37.2 40.9l-.2.3M37 41.2l-.3.3M36.7 41.6l-.5.2M36.2 41.8h-.9M41.7 41.8v-3.6M41.7 38.2h1.4M43 38.2l.3.2M43.4 38.3l.2.2M43.5 38.5l.2.3M43.7 38.8v.5M43.7 39.4l-.2.3M43.5 39.7l-.2.2M43.4 39.9l-.3.2M43 40h-1.4M45.3 41.8v-3.6M47 41.8v-3.6M47 38.2l2.1 3.6M49 41.8v-3.6M54.2 39.9 51 36.3H8.5v7.2H51l3.2-3.6Z"/><path class="st9" d="m113.5 60.8.5.2M114 60.9h.9M114.9 60.9l.3-.2M115.2 60.8l.2-.2M115.4 60.6l.2-.3M115.6 60.3V60M115.6 59.9l-.2-.3M115.4 59.6l-.2-.2M115.2 59.4l-.3-.2M114.9 59.2l-.7-.2M114.2 59.1l-.3-.2M113.8 58.9l-.2-.2M113.7 58.7l-.2-.3M113.5 58.4v-.3M113.5 58l.2-.3M113.7 57.7l.2-.2M113.8 57.5l.3-.2M114.2 57.3h.9M115 57.3l.5.2M116.8 58.5l.7 2.4M117.4 60.9l.7-1.7M118.1 59.2l.7 1.7M118.8 60.9l.7-2.4M120.9 60.9v-2.4M120.9 57.3l-.2.2M120.7 57.5l.2.2M120.9 57.7l.2-.2M121 57.5l-.2-.2M120.9 57.3v.3M122.1 58.5h1.4M122.6 57.3v3.1M122.6 60.4l.2.3M122.8 60.8l.3.2M123.1 60.9h.3M126.2 60.8l-.3.2M125.8 60.9h-.7M125.2 60.9l-.3-.2M124.8 60.8l-.2-.2M124.6 60.6l-.2-.3M124.5 60.3v-1M124.5 59.2l.2-.3M124.6 58.9l.2-.2M124.8 58.7l.3-.2M125.2 58.5h.7M125.8 58.5l.3.2M127.7 60.9v-3.6M129.3 60.9V59M129.3 59.1l-.2-.3M129.1 58.7l-.3-.2M128.8 58.5h-.5M128.2 58.5l-.3.2M127.9 58.7l-.2.2M134.8 62.3l-.2-.2M134.6 62.1l-.3-.5M134.2 61.6l-.2-.3M134.1 61.3l-.2-.5M133.9 60.8l-.2-.9M133.7 59.9v-.7M133.7 59.2l.2-.9M133.9 58.4l.2-.5M134.1 57.9l.2-.3M134.2 57.5l.3-.5M134.6 57l.2-.2M136.1 60.9v-2.4M136.1 57.3l-.2.2M136 57.5l.2.2M136.1 57.7l.2-.2M136.3 57.5l-.2-.2M136.1 57.3v.3M137.8 58.5v2.4M137.8 58.9l.2-.2M138 58.7l.3-.2M138.4 58.5h.5M138.9 58.5l.3.2M139.2 58.7l.2.3M139.4 59.1V61M140.9 60.8l.3.2M141.3 60.9h.7M142 60.9l.3-.2M142.3 60.8l.2-.3M142.5 60.4v-.2M142.5 60.3l-.2-.3M142.3 59.9l-.3-.2M142 59.7h-.5M141.4 59.7l-.3-.2M141.1 59.6l-.2-.3M140.9 59.2V59M140.9 59.1l.2-.3M141.1 58.7l.3-.2M141.4 58.5h.5M142 58.5l.3.2M144 60.9v-2.4M144 57.3l-.2.2M143.8 57.5l.2.2M144 57.7l.2-.2M144.2 57.5l-.2-.2M144 57.3v.3M147.3 60.9v-3.6M147.3 60.8l-.3.2M146.9 60.9h-.7M146.2 60.9l-.3-.2M145.9 60.8l-.2-.2M145.7 60.6l-.2-.3M145.6 60.3v-1M145.6 59.2l.2-.3M145.7 58.9l.2-.2M145.9 58.7l.3-.2M146.2 58.5h.7M146.9 58.5l.3.2M150.4 60.8l-.3.2M150 60.9h-.7M149.3 60.9l-.3-.2M149 60.8l-.2-.3M148.8 60.4V59M148.8 59.1l.2-.3M149 58.7l.3-.2M149.3 58.5h.7M150 58.5l.3.2M150.4 58.7l.2.3M150.5 59.1v.3M150.5 59.4l-1.7.3M154.8 58.5v3.6M154.8 58.7l.3-.2M155.2 58.5h.7M155.8 58.5l.3.2M156.2 58.7l.2.2M156.4 58.9l.2.3M156.5 59.2v1M156.5 60.3l-.2.3M156.4 60.6l-.2.2M156.2 60.8l-.3.2M155.8 60.9h-.7M155.2 60.9l-.3-.2M158.1 60.9v-2.4M158.1 57.3l-.2.2M157.9 57.5l.2.2M158.1 57.7l.2-.2M158.2 57.5l-.2-.2M158.1 57.3v.3M159.8 58.5v2.4M159.8 58.9l.2-.2M160 58.7l.3-.2M160.3 58.5h.5M160.8 58.5l.3.2M161.2 58.7l.2.3M161.3 59.1V61M162.9 60.8l.3.2M163.2 60.9h.7M163.9 60.9l.3-.2M164.2 60.8l.2-.3M164.4 60.4v-.2M164.4 60.3l-.2-.3M164.2 59.9l-.3-.2M163.9 59.7h-.5M163.4 59.7l-.3-.2M163 59.6l-.2-.3M162.9 59.2V59M162.9 59.1l.2-.3M163 58.7l.3-.2M163.4 58.5h.5M163.9 58.5l.3.2M165.6 62.3l.2-.2M165.8 62.1l.3-.5M166.1 61.6l.2-.3M166.3 61.3l.2-.5M166.5 60.8l.2-.9M166.6 59.9v-.7M166.6 59.2l-.2-.9M166.5 58.4l-.2-.5M166.3 57.9l-.2-.3M166.1 57.5l-.3-.5M165.8 57l-.2-.2M115.1 1.2h.7M115.8 1.2l.3.2M116.1 1.4l.3.3M116.5 1.7l.2.7M116.6 2.4v1.2M116.6 3.6l-.2.7M116.5 4.3l-.3.3M116.1 4.6l-.3.2M115.8 4.8h-.7M115.1 4.8l-.3-.2M114.7 4.6l-.3-.3M114.4 4.3l-.2-.7M114.2 3.6V2.4M114.2 2.4l.2-.7M114.4 1.7l.3-.3M114.7 1.4l.3-.2M119.7 2.4v2.4M118.2 2.4v1.9M118.2 4.3l.2.3M118.3 4.6l.3.2M118.7 4.8h.5M119.2 4.8l.3-.2M119.5 4.6l.2-.2M120.9 2.4h1.4M121.4 1.2v3.1M121.4 4.3l.2.3M121.6 4.6l.3.2M121.9 4.8h.3M124.9 4.6l-.3.2M124.5 4.8h-.7M123.8 4.8l-.3-.2M123.5 4.6l-.2-.3M123.3 4.3V2.9M123.3 2.9l.2-.3M123.5 2.6l.3-.2M123.8 2.4h.7M124.5 2.4l.3.2M124.9 2.6l.2.3M125 2.9v.3M125 3.2l-1.7.3M126.6 4.8V2.4M126.6 3.1l.2-.3M126.7 2.7l.2-.2M126.9 2.6l.3-.2M127.3 2.4h.3M131.5 4.8V1.2M131.9 3.4l1 1.4M132.9 2.4l-1.4 1.4M134.5 2.4v2.4M134.5 2.7l.2-.2M134.6 2.6l.3-.2M135 2.4h.5M135.5 2.4l.3.2M135.8 2.6l.2.3M136 2.9v1.9M138.2 4.8l-.3-.2M137.9 4.6l-.2-.2M137.7 4.4l-.2-.3M137.5 4.1v-1M137.5 3.1l.2-.3M137.7 2.7l.2-.2M137.9 2.6l.3-.2M138.2 2.4h.5M138.7 2.4l.3.2M139.1 2.6l.2.2M139.3 2.7l.2.3M139.4 3.1v1M139.4 4.1l-.2.3M139.3 4.4l-.2.2M139.1 4.6l-.3.2M138.7 4.8h-.5M141 4.8V1.2M141 2.6l.3-.2M141.3 2.4h.7M142 2.4l.3.2M142.3 2.6l.2.2M142.5 2.7l.2.3M142.7 3.1v1M142.7 4.1l-.2.3M142.5 4.4l-.2.2M142.3 4.6l-.3.2M142 4.8h-.7M141.3 4.8l-.3-.2M148 6.2l-.2-.2M147.8 6l-.3-.5M147.5 5.5l-.2-.3M147.3 5.1l-.2-.5M147.1 4.6l-.2-.9M147 3.8v-.7M147 3.1l.2-.9M147.1 2.2l.2-.5M147.3 1.7l.2-.3M147.5 1.4l.3-.5M147.8.8l.2-.2M149.9 4.8l-.3-.2M149.5 4.6l-.2-.2M149.4 4.4l-.2-.3M149.2 4.1v-1M149.2 3.1l.2-.3M149.4 2.7l.2-.2M149.5 2.6l.3-.2M149.9 2.4h.5M150.4 2.4l.3.2M150.7 2.6l.2.2M150.9 2.7l.2.3M151.1 3.1v1M151.1 4.1l-.2.3M150.9 4.4l-.2.2M150.7 4.6l-.3.2M150.4 4.8h-.5M154.2 2.4v2.4M152.6 2.4v1.9M152.6 4.3l.2.3M152.8 4.6l.3.2M153.1 4.8h.5M153.7 4.8l.3-.2M154 4.6l.2-.2M155.4 2.4h1.4M155.9 1.2v3.1M155.9 4.3l.2.3M156.1 4.6l.3.2M156.4 4.8h.3M157.8 4.6l.3.2M158.1 4.8h.7M158.8 4.8l.3-.2M159.1 4.6l.2-.3M159.3 4.3v-.2M159.3 4.1l-.2-.3M159.1 3.8l-.3-.2M158.8 3.6h-.5M158.3 3.6l-.3-.2M157.9 3.4l-.2-.3M157.8 3.1v-.2M157.8 2.9l.2-.3M157.9 2.6l.3-.2M158.3 2.4h.5M158.8 2.4l.3.2M160.9 4.8V2.4M160.9 1.2l-.2.2M160.7 1.4l.2.2M160.9 1.5l.2-.2M161 1.4l-.2-.2M160.9 1.2v.3M164.1 4.8V1.2M164.1 4.6l-.3.2M163.8 4.8h-.7M163.1 4.8l-.3-.2M162.7 4.6l-.2-.2M162.6 4.4l-.2-.3M162.4 4.1v-1M162.4 3.1l.2-.3M162.6 2.7l.2-.2M162.7 2.6l.3-.2M163.1 2.4h.7M163.8 2.4l.3.2M167.2 4.6l-.3.2M166.9 4.8h-.7M166.2 4.8l-.3-.2M165.8 4.6l-.2-.3M165.7 4.3V2.9M165.7 2.9l.2-.3M165.8 2.6l.3-.2M166.2 2.4h.7M166.9 2.4l.3.2M167.2 2.6l.2.3M167.4 2.9v.3M167.4 3.2l-1.7.3M171.7 2.4V6M171.7 2.6l.3-.2M172 2.4h.7M172.7 2.4l.3.2M173 2.6l.2.2M173.2 2.7l.2.3M173.4 3.1v1M173.4 4.1l-.2.3M173.2 4.4l-.2.2M173 4.6l-.3.2M172.7 4.8h-.7M172 4.8l-.3-.2M174.9 4.8V2.4M174.9 1.2l-.2.2M174.7 1.4l.2.2M174.9 1.5l.2-.2M175.1 1.4l-.2-.2M174.9 1.2v.3M176.6 2.4v2.4M176.6 2.7l.2-.2M176.8 2.6l.3-.2M177.1 2.4h.5M177.7 2.4l.3.2M178 2.6l.2.3M178.2 2.9v1.9M179.7 4.6l.3.2M180.1 4.8h.7M180.7 4.8l.3-.2M181.1 4.6l.2-.3M181.3 4.3v-.2M181.3 4.1l-.2-.3M181.1 3.8l-.3-.2M180.7 3.6h-.5M180.2 3.6l-.3-.2M179.9 3.4l-.2-.3M179.7 3.1v-.2M179.7 2.9l.2-.3M179.9 2.6l.3-.2M180.2 2.4h.5M180.7 2.4l.3.2M182.5 6.2l.2-.2M182.6 6l.3-.5M183 5.5l.2-.3M183.1 5.1l.2-.5M183.3 4.6l.2-.9M183.5 3.8v-.7M183.5 3.1l-.2-.9M183.3 2.2l-.2-.5M183.1 1.7l-.2-.3M183 1.4l-.3-.5M182.6.8l-.2-.2M21.1 15.6V12M22.9 13.2v2.4M22.9 13.5l.2-.2M23 13.4l.3-.2M23.4 13.2h.5M23.9 13.2l.3.2M24.2 13.4l.2.3M24.4 13.7v1.9M26.1 13.2v2.4M26.1 13.5l.2-.2M26.3 13.4l.3-.2M26.6 13.2h.5M27.1 13.2l.3.2M27.5 13.4l.2.3M27.7 13.7v1.9M30.7 15.4l-.3.2M30.4 15.6h-.7M29.7 15.6l-.3-.2M29.4 15.4l-.2-.3M29.2 15.1v-1.4M29.2 13.7l.2-.3M29.4 13.4l.3-.2M29.7 13.2h.7M30.4 13.2l.3.2M30.7 13.4l.2.3M30.9 13.7v.3M30.9 14l-1.7.3M32.5 15.6v-2.4M32.5 13.9l.2-.3M32.6 13.5l.2-.2M32.8 13.4l.3-.2M33.1 13.2h.3M37.4 15.6V12M37.8 14.2l1 1.4M38.8 13.2l-1.4 1.4M40.3 13.2v2.4M40.3 13.5l.2-.2M40.5 13.4l.3-.2M40.9 13.2h.5M41.4 13.2l.3.2M41.7 13.4l.2.3M41.9 13.7v1.9M44.1 15.6l-.3-.2M43.8 15.4l-.2-.2M43.6 15.2l-.2-.3M43.4 14.9v-1M43.4 13.9l.2-.3M43.6 13.5l.2-.2M43.8 13.4l.3-.2M44.1 13.2h.5M44.6 13.2l.3.2M45 13.4l.2.2M45.1 13.5l.2.3M45.3 13.9v1M45.3 14.9l-.2.3M45.1 15.2l-.2.2M45 15.4l-.3.2M44.6 15.6h-.5M46.9 15.6V12M46.9 13.4l.3-.2M47.2 13.2h.7M47.9 13.2l.3.2M48.2 13.4l.2.2M48.4 13.5l.2.3M48.6 13.9v1M48.6 14.9l-.2.3M48.4 15.2l-.2.2M48.2 15.4l-.3.2M47.9 15.6h-.7M47.2 15.6l-.3-.2"/><path class="st7" d="M3.8 18.3H65v28.8H3.8zM108.2 7.5h61.2v28.8h-61.2zM108.2 36.3h61.2v18h-61.2z"/><path class="st4" d="M119 50.7h54M54.2 32.7H.2M.2 72.3h86.4M.2 32.7v39.6M173 50.7v21.6M173 21.9v28.8M119 21.9h54M86.6 72.3H173"/><circle class="st10" cx="173" cy="50.7" r="1.3"/><circle class="st10" cx="86.6" cy="72.3" r="1.3"/></svg>