<svg id="Layer_1" xmlns="http://www.w3.org/2000/svg" version="1.1" viewBox="0 0 229.8 115.1">
  <defs>
    <style>
      .st1,
      .st10,
      .st2,
      .st3,
      .st4,
      .st6,
      .st7,
      .st8,
      .st9 {
        fill: none;
        stroke-linecap: round;
        stroke-linejoin: round
      }

      .st1,
      .st10,
      .st3,
      .st4,
      .st7 {
        stroke-width: .4px
      }

      .st1,
      .st9 {
        stroke: #a90000
      }

      .st2 {
        stroke-width: .7px
      }

      .st10,
      .st2,
      .st8 {
        stroke: #840000
      }

      .st13 {
        letter-spacing: .6em
      }

      .st3 {
        stroke: #009600
      }

      .st14 {
        fill: #ffffc2
      }

      .st4,
      .st6 {
        stroke: #006464
      }

      .st6,
      .st8,
      .st9 {
        font-family: ArialMT, Arial;
        font-size: 4.8px;
        stroke-width: .4px
      }

      .st7 {
        stroke: #0000c2
      }

      .st17 {
        isolation: isolate;
        opacity: 0
      }

      .st20 {
        letter-spacing: 1.3em
      }

      .st22 {
        letter-spacing: .6em
      }
    </style>
  </defs>
  <path class="st14" d="M.4 21.1h154.8v93.6H.4z" />
  <path class="st14" d="M65.2 28.3h79.2v28.8H65.2z" />
  <path class="st2" d="M.4 21.1h154.8v93.6H.4z" />
  <path class="st2" d="M65.2 28.3h79.2v28.8H65.2z" />
  <path class="st10" d="M144.4 31.9h7.2" />
  <path class="st4"
    d="m134.4 30.2-.3-.2M134.1 30h-.5M133.6 30l-.5.2M133 30.2l-.3.3M132.7 30.5l-.2.3M132.5 30.8l-.2.7M132.4 31.5v.5M132.4 32l.2.7M132.5 32.7l.2.3M132.7 33.1l.3.3M133 33.4l.5.2M133.6 33.6h.3M133.9 33.6l.5-.2M134.4 33.4l.2-.2M134.6 33.2V32M134.6 32h-.7M136.1 33.6V30M136.1 30l2.1 3.6M138.2 33.6V30M139.9 33.6V30M139.9 30h.9M140.8 30l.5.2M141.3 30.2l.3.3M141.6 30.5l.2.3M141.8 30.8l.2.7M141.9 31.5v.5M141.9 32l-.2.7M141.8 32.7l-.2.3M141.6 33.1l-.3.3M141.3 33.4l-.5.2M140.8 33.6h-.9" />
  <path class="st1" d="M149 30.8h-2.1M148 30.8v-3.6M148 27.2l-.3.5M147.6 27.7l-.3.3M147.3 28l-.3.2" />
  <path class="st10" d="M144.4 39.1h7.2" />
  <path class="st4"
    d="m132.7 37.2 1.2 3.6M133.9 40.8l1.2-3.6M138.3 40.4l-.2.2M138.2 40.6l-.5.2M137.7 40.8h-.3M137.3 40.8l-.5-.2M136.8 40.6l-.3-.3M136.5 40.3l-.2-.3M136.3 39.9l-.2-.7M136.1 39.2v-.5M136.1 38.7l.2-.7M136.3 38l.2-.3M136.5 37.7l.3-.3M136.8 37.4l.5-.2M137.3 37.2h.3M137.7 37.2l.5.2M138.2 37.4l.2.2M141.9 40.4l-.2.2M141.8 40.6l-.5.2M141.3 40.8h-.3M140.9 40.8l-.5-.2M140.4 40.6l-.3-.3M140.1 40.3l-.2-.3M139.9 39.9l-.2-.7M139.7 39.2v-.5M139.7 38.7l.2-.7M139.9 38l.2-.3M140.1 37.7l.3-.3M140.4 37.4l.5-.2M140.9 37.2h.3M141.3 37.2l.5.2M141.8 37.4l.2.2" />
  <path class="st1"
    d="m146.9 34.7.2-.2M147.1 34.5l.3-.2M147.4 34.4h.9M148.3 34.4l.3.2M148.6 34.5l.2.2M148.8 34.7l.2.3M149 35v.3M149 35.4l-.2.5M148.8 35.9l-2.1 2.1M146.8 38h2.2" />
  <path class="st10" d="M144.4 53.5h7.2" />
  <path class="st4"
    d="m133.4 55 .5.2M133.9 55.2h.9M134.8 55.2l.3-.2M135.1 55l.2-.2M135.3 54.8l.2-.3M135.4 54.5v-.3M135.4 54.2l-.2-.3M135.3 53.8l-.2-.2M135.1 53.6l-.3-.2M134.8 53.5l-.7-.2M134.1 53.3l-.3-.2M133.7 53.1l-.2-.2M133.6 53l-.2-.3M133.4 52.6v-.3M133.4 52.3l.2-.3M133.6 51.9l.2-.2M133.7 51.8l.3-.2M134.1 51.6h.9M134.9 51.6l.5.2M139 54.8l-.2.2M138.9 55l-.5.2M138.3 55.2h-.3M138 55.2l-.5-.2M137.5 55l-.3-.3M137.2 54.7l-.2-.3M137 54.3l-.2-.7M136.8 53.6v-.5M136.8 53.1l.2-.7M137 52.4l.2-.3M137.2 52.1l.3-.3M137.5 51.8l.5-.2M138 51.6h.3M138.3 51.6l.5.2M138.9 51.8l.2.2M142.3 55.2h-1.7M140.6 55.2v-3.6" />
  <path class="st1" d="M148.6 50v2.4M147.8 48.6l-.9 2.6M146.9 51.2h2.2" />
  <path class="st10" d="M144.4 46.3h7.2" />
  <path class="st4"
    d="m133.2 47.8.5.2M133.7 48h.9M134.6 48l.3-.2M134.9 47.8l.2-.2M135.1 47.6l.2-.3M135.3 47.3V47M135.3 47l-.2-.3M135.1 46.6l-.2-.2M134.9 46.4l-.3-.2M134.6 46.3l-.7-.2M133.9 46.1l-.3-.2M133.6 45.9l-.2-.2M133.4 45.8l-.2-.3M133.2 45.4v-.3M133.2 45.1l.2-.3M133.4 44.7l.2-.2M133.6 44.6l.3-.2M133.9 44.4h.9M134.7 44.4l.5.2M136.8 48v-3.6M136.8 44.4h.9M137.7 44.4l.5.2M138.2 44.6l.3.3M138.5 44.9l.2.3M138.7 45.2l.2.7M138.9 45.9v.5M138.9 46.4l-.2.7M138.7 47.1l-.2.3M138.5 47.5l-.3.3M138.2 47.8l-.5.2M137.7 48h-.9M140.2 47h1.7M139.9 48l1.2-3.6M141.1 44.4l1.2 3.6" />
  <path class="st1"
    d="M146.8 41.6h2.2M149 41.6l-1.2 1.4M147.8 42.9h.5M148.3 42.9l.3.2M148.6 43.1l.2.2M148.8 43.3l.2.3M149 43.6v.9M149 44.5l-.2.3M148.8 44.8l-.2.2M148.6 45l-.3.2M148.3 45.2h-1M147.3 45.2l-.3-.2M146.9 45l-.2-.2" />
  <path class="st10" d="M166 60.7v3.6h3.6l-3.6 3.6-3.6-3.6h3.6M166 60.7h0" />
  <path class="st4"
    d="m163.2 73.4-.3-.2M162.9 73.2h-.5M162.4 73.2l-.5.2M161.8 73.4l-.3.3M161.5 73.7l-.2.3M161.3 74l-.2.7M161.2 74.7v.5M161.2 75.2l.2.7M161.3 75.9l.2.3M161.5 76.3l.3.3M161.8 76.6l.5.2M162.4 76.8h.3M162.7 76.8l.5-.2M163.2 76.6l.2-.2M163.4 76.4v-1.2M163.4 75.2h-.7M164.9 76.8v-3.6M164.9 73.2l2.1 3.6M167 76.8v-3.6M168.7 76.8v-3.6M168.7 73.2h.9M169.6 73.2l.5.2M170.1 73.4l.3.3M170.4 73.7l.2.3M170.6 74l.2.7M170.8 74.7v.5M170.8 75.2l-.2.7M170.6 75.9l-.2.3M170.4 76.3l-.3.3M170.1 76.6l-.5.2M169.6 76.8h-.9" />
  <path class="st10" d="m167.4 13.9 2.2-3.6M169.6 10.3l2.2 3.6M169.6 17.5v-7.2M169.6 17.5h0" />
  <path class="st4"
    d="M164.9 3.4h2.7M166.3 4.8V2.1M171.1 1.2h-1.7M169.4 1.2l-.2 1.7M169.2 2.9l.2-.2M169.4 2.7l.3-.2M169.7 2.6h.9M170.6 2.6l.3.2M170.9 2.7l.2.2M171.1 2.9l.2.3M171.3 3.2v.9M171.3 4.1l-.2.3M171.1 4.4l-.2.2M170.9 4.6l-.3.2M170.6 4.8h-.9M169.7 4.8l-.3-.2M169.4 4.6l-.2-.2M172.3 1.2l1.2 3.6M173.5 4.8l1.2-3.6" />
  <path class="st10"
    d="m175.5 55.3.5.2M176 55.4h.9M176.9 55.4l.3-.2M177.2 55.3l.2-.2M177.4 55.1l.2-.3M177.5 54.8v-.3M177.5 54.4l-.2-.3M177.4 54.1l-.2-.2M177.2 53.9l-.3-.2M176.9 53.7l-.7-.2M176.2 53.6l-.3-.2M175.8 53.4l-.2-.2M175.7 53.2l-.2-.3M175.5 52.9v-.3M175.5 52.5l.2-.3M175.7 52.2l.2-.2M175.8 52l.3-.2M176.2 51.8h.9M177 51.8l.5.2M181.1 55.1l-.2.2M181 55.3l-.5.2M180.5 55.4h-.3M180.1 55.4l-.5-.2M179.6 55.3l-.3-.3M179.3 54.9l-.2-.3M179.1 54.6l-.2-.7M178.9 53.9v-.5M178.9 53.4l.2-.7M179.1 52.7l.2-.3M179.3 52.4l.3-.3M179.6 52l.5-.2M180.1 51.8h.3M180.5 51.8l.5.2M181 52l.2.2M184.4 55.4h-1.7M182.7 55.4v-3.6M188.3 55.4v-3.6M188.3 51.8h1.4M189.7 51.8l.3.2M190.1 52l.2.2M190.2 52.2l.2.3M190.4 52.5v.5M190.4 53l-.2.3M190.2 53.4l-.2.2M190.1 53.6l-.3.2M189.7 53.7h-1.4M191.9 55.4v-3.6M193.7 55.4v-3.6M193.7 51.8l2.1 3.6M195.7 55.4v-3.6M200.9 51.8h.7M201.5 51.8l.3.2M201.9 52l.3.3M202.2 52.4l.2.7M202.4 53v1.2M202.4 54.2l-.2.7M202.2 54.9l-.3.3M201.9 55.3l-.3.2M201.5 55.4h-.7M200.9 55.4l-.3-.2M200.5 55.3l-.3-.3M200.2 54.9l-.2-.7M200 54.2V53M200 53l.2-.7M200.2 52.4l.3-.3M200.5 52l.3-.2M203.9 55.4v-3.6M203.9 51.8l2.1 3.6M206 55.4v-3.6M211.7 53.6l.5.2M212.2 53.7l.2.2M212.3 53.9l.2.3M212.5 54.2v.5M212.5 54.8l-.2.3M212.3 55.1l-.2.2M212.2 55.3l-.3.2M211.8 55.4h-1.4M210.5 55.4v-3.6M210.5 51.8h1.2M211.7 51.8l.3.2M212 52l.2.2M212.2 52.2l.2.3M212.3 52.5v.3M212.3 52.9l-.2.3M212.2 53.2l-.2.2M212 53.4l-.3.2M211.7 53.6h-1.2M214.7 51.8h.7M215.4 51.8l.3.2M215.8 52l.3.3M216.1 52.4l.2.7M216.3 53v1.2M216.3 54.2l-.2.7M216.1 54.9l-.3.3M215.8 55.3l-.3.2M215.4 55.4h-.7M214.7 55.4l-.3-.2M214.4 55.3l-.3-.3M214.1 54.9l-.2-.7M213.9 54.2V53M213.9 53l.2-.7M214.1 52.4l.3-.3M214.4 52l.3-.2M217.7 54.4h1.7M217.3 55.4l1.2-3.6M218.5 51.8l1.2 3.6M223 55.4l-1.2-1.7M220.9 55.4v-3.6M220.9 51.8h1.4M222.3 51.8l.3.2M222.6 52l.2.2M222.8 52.2l.2.3M223 52.5v.5M223 53l-.2.3M222.8 53.4l-.2.2M222.6 53.6l-.3.2M222.3 53.7h-1.4M224.5 55.4v-3.6M224.5 51.8h.9M225.4 51.8l.5.2M225.9 52l.3.3M226.2 52.4l.2.3M226.4 52.7l.2.7M226.6 53.4v.5M226.6 53.9l-.2.7M226.4 54.6l-.2.3M226.2 54.9l-.3.3M225.9 55.3l-.5.2M225.4 55.4h-.9M173.2 53.5v3.6h56.2v-7.2h-56.2v3.6ZM175.5 48.1l.5.2M176 48.2h.9M176.9 48.2l.3-.2M177.2 48.1l.2-.2M177.4 47.9l.2-.3M177.5 47.6v-.3M177.5 47.2l-.2-.3M177.4 46.9l-.2-.2M177.2 46.7l-.3-.2M176.9 46.5l-.7-.2M176.2 46.4l-.3-.2M175.8 46.2l-.2-.2M175.7 46l-.2-.3M175.5 45.7v-.3M175.5 45.3l.2-.3M175.7 45l.2-.2M175.8 44.8l.3-.2M176.2 44.6h.9M177 44.6l.5.2M179.1 48.2v-3.6M179.1 44.6h.9M179.9 44.6l.5.2M180.5 44.8l.3.3M180.8 45.2l.2.3M181 45.5l.2.7M181.1 46.2v.5M181.1 46.7l-.2.7M181 47.4l-.2.3M180.8 47.7l-.3.3M180.5 48.1l-.5.2M179.9 48.2h-.9M182.5 47.2h1.7M182.2 48.2l1.2-3.6M183.4 44.6l1.2 3.6M188.5 48.2v-3.6M188.5 44.6h1.4M189.9 44.6l.3.2M190.2 44.8l.2.2M190.4 45l.2.3M190.6 45.3v.5M190.6 45.8l-.2.3M190.4 46.2l-.2.2M190.2 46.4l-.3.2M189.9 46.5h-1.4M192.1 48.2v-3.6M193.8 48.2v-3.6M193.8 44.6l2.1 3.6M195.9 48.2v-3.6M201 44.6h.7M201.7 44.6l.3.2M202.1 44.8l.3.3M202.4 45.2l.2.7M202.6 45.8V47M202.6 47l-.2.7M202.4 47.7l-.3.3M202.1 48.1l-.3.2M201.7 48.2h-.7M201 48.2l-.3-.2M200.7 48.1l-.3-.3M200.3 47.7l-.2-.7M200.2 47v-1.2M200.2 45.8l.2-.7M200.3 45.2l.3-.3M200.7 44.8l.3-.2M204.1 48.2v-3.6M204.1 44.6l2.1 3.6M206.2 48.2v-3.6M211.8 46.4l.5.2M212.3 46.5l.2.2M212.5 46.7l.2.3M212.7 47v.5M212.7 47.6l-.2.3M212.5 47.9l-.2.2M212.3 48.1l-.3.2M212 48.2h-1.4M210.6 48.2v-3.6M210.6 44.6h1.2M211.8 44.6l.3.2M212.2 44.8l.2.2M212.3 45l.2.3M212.5 45.3v.3M212.5 45.7l-.2.3M212.3 46l-.2.2M212.2 46.2l-.3.2M211.8 46.4h-1.2M214.9 44.6h.7M215.6 44.6l.3.2M215.9 44.8l.3.3M216.3 45.2l.2.7M216.5 45.8V47M216.5 47l-.2.7M216.3 47.7l-.3.3M215.9 48.1l-.3.2M215.6 48.2h-.7M214.9 48.2l-.3-.2M214.6 48.1l-.3-.3M214.2 47.7l-.2-.7M214.1 47v-1.2M214.1 45.8l.2-.7M214.2 45.2l.3-.3M214.6 44.8l.3-.2M217.8 47.2h1.7M217.5 48.2l1.2-3.6M218.7 44.6l1.2 3.6M223.1 48.2l-1.2-1.7M221.1 48.2v-3.6M221.1 44.6h1.4M222.5 44.6l.3.2M222.8 44.8l.2.2M223 45l.2.3M223.1 45.3v.5M223.1 45.8l-.2.3M223 46.2l-.2.2M222.8 46.4l-.3.2M222.5 46.5h-1.4M224.7 48.2v-3.6M224.7 44.6h.9M225.5 44.6l.5.2M226.1 44.8l.3.3M226.4 45.2l.2.3M226.6 45.5l.2.7M226.7 46.2v.5M226.7 46.7l-.2.7M226.6 47.4l-.2.3M226.4 47.7l-.3.3M226.1 48.1l-.5.2M225.5 48.2h-.9" />
  <path class="st10" d="M173.2 46.3v3.6h56.4v-7.2h-56.4v3.6Z" />
  <path class="st3" d="M151.6 53.5h21.6M151.6 46.3h21.6M151.6 39.1h18M169.6 17.5v21.6M151.6 31.9H166M166 31.9v28.8" />
  <path class="st7"
    d="m58.1 107.3.5.2M58.6 107.5l.2.2M58.8 107.7l.2.3M59 108v.5M59 108.5l-.2.3M58.8 108.9l-.2.2M58.6 109l-.3.2M58.3 109.2h-1.4M56.9 109.2v-3.6M56.9 105.6h1.2M58.1 105.6l.3.2M58.5 105.8l.2.2M58.6 105.9l.2.3M58.8 106.3v.3M58.8 106.6l-.2.3M58.6 107l-.2.2M58.5 107.1l-.3.2M58.1 107.3h-1.2M62.1 109.2v-1.9M62.1 107.3l-.2-.3M61.9 107l-.3-.2M61.5 106.8h-.7M60.9 106.8l-.3.2M62.1 109l-.3.2M61.7 109.2h-.9M60.9 109.2l-.3-.2M60.5 109l-.2-.3M60.3 108.7v-.3M60.3 108.3l.2-.3M60.5 108l.3-.2M60.9 107.8h.9M61.7 107.8l.3-.2M65.3 109l-.3.2M65 109.2h-.7M64.3 109.2l-.3-.2M63.9 109l-.2-.2M63.8 108.9l-.2-.3M63.6 108.5v-1M63.6 107.5l.2-.3M63.8 107.1l.2-.2M63.9 107l.3-.2M64.3 106.8h.7M65 106.8l.3.2M66.9 109.2v-3.6M67.2 107.8l1 1.4M68.2 106.8l-1.4 1.4M73 109.2l-.3-.2M72.7 109l-.2-.2M72.5 108.9l-.2-.3M72.3 108.5v-1M72.3 107.5l.2-.3M72.5 107.1l.2-.2M72.7 107l.3-.2M73 106.8h.5M73.5 106.8l.3.2M73.9 107l.2.2M74.1 107.1l.2.3M74.2 107.5v1M74.2 108.5l-.2.3M74.1 108.9l-.2.2M73.9 109l-.3.2M73.5 109.2H73M75.3 106.8h1.4M75.8 109.2v-3.1M75.8 106.1l.2-.3M75.9 105.8l.3-.2M76.3 105.6h.3M82.1 109.2v-3.6M82.1 109l-.3.2M81.8 109.2h-.7M81.1 109.2l-.3-.2M80.7 109l-.2-.2M80.6 108.9l-.2-.3M80.4 108.5v-1M80.4 107.5l.2-.3M80.6 107.1l.2-.2M80.7 107l.3-.2M81.1 106.8h.7M81.8 106.8l.3.2M83.8 109.2v-2.4M83.8 105.6l-.2.2M83.7 105.8l.2.2M83.8 105.9l.2-.2M84 105.8l-.2-.2M83.8 105.6v.3M85.4 109l.3.2M85.7 109.2h.7M86.4 109.2l.3-.2M86.7 109l.2-.3M86.9 108.7v-.2M86.9 108.5l-.2-.3M86.7 108.2l-.3-.2M86.4 108h-.5M85.9 108l-.3-.2M85.5 107.8l-.2-.3M85.4 107.5v-.2M85.4 107.3l.2-.3M85.5 107l.3-.2M85.9 106.8h.5M86.4 106.8l.3.2M88.5 106.8v3.6M88.5 107l.3-.2M88.8 106.8h.7M89.5 106.8l.3.2M89.8 107l.2.2M90 107.1l.2.3M90.2 107.5v1M90.2 108.5l-.2.3M90 108.9l-.2.2M89.8 109l-.3.2M89.5 109.2h-.7M88.8 109.2l-.3-.2M92.2 109.2l-.3-.2M91.9 109l-.2-.3M91.7 108.7v-3.1M95.1 109.2v-1.9M95.1 107.3l-.2-.3M95 107l-.3-.2M94.6 106.8h-.7M93.9 106.8l-.3.2M95.1 109l-.3.2M94.8 109.2h-.9M93.9 109.2l-.3-.2M93.6 109l-.2-.3M93.4 108.7v-.3M93.4 108.3l.2-.3M93.6 108l.3-.2M93.9 107.8h.9M94.8 107.8l.3-.2M96.5 106.8l.9 2.4M98.2 106.8l-.9 2.4M97.4 109.2l-.3.9M97 110.1l-.2.2M96.9 110.2l-.3.2" />
</svg>